<svg width="24" height="25" viewBox="0 0 24 25" fill="none" xmlns="http://www.w3.org/2000/svg">
<path fill-rule="evenodd" clip-rule="evenodd" d="M20.5 12.4997C20.5 9.16849 15.023 5.92474 13.925 5.30807C13.438 5.03412 12.832 5.2237 12.57 5.73099C12.309 6.2362 12.489 6.86849 12.976 7.14141C14.807 8.17162 17.23 9.98099 18.135 11.4591H4.5C3.947 11.4591 3.5 11.9247 3.5 12.5008C3.5 13.0758 3.947 13.5424 4.5 13.5424H18.133C17.227 15.0206 14.806 16.83 12.976 17.8591C12.489 18.1331 12.309 18.7643 12.57 19.2706C12.751 19.6195 13.096 19.8175 13.451 19.8175C13.611 19.8175 13.774 19.7779 13.925 19.6925C15.022 19.0758 20.495 15.8341 20.5 12.5029C20.5 12.5018 20.5 12.4997 20.5 12.4997Z" fill="black"/>
</svg>
